<svg xmlns="http://www.w3.org/2000/svg" version="1.1" xmlns:xlink="http://www.w3.org/1999/xlink" xmlns:svgjs="http://svgjs.dev/svgjs" width="1000" height="1000" viewBox="0 0 1000 1000"><rect width="1000" height="1000" fill="#ffffff"></rect><g transform="matrix(0.7,0,0,0.7,149.57575757575756,282.1265587044535)"><svg viewBox="0 0 396 247" data-background-color="#ffffff" preserveAspectRatio="xMidYMid meet" height="623" width="1000" xmlns="http://www.w3.org/2000/svg" xmlns:xlink="http://www.w3.org/1999/xlink"><g id="tight-bounds" transform="matrix(1,0,0,1,0.2400000000000091,-0.09999999999999432)"><svg viewBox="0 0 395.52 247.2" height="247.2" width="395.52"><g><svg></svg></g><g><svg viewBox="0 0 395.52 247.2" height="247.2" width="395.52"><g transform="matrix(1,0,0,1,75.54432000000001,48.87329241739265)"><svg viewBox="0 0 244.43135999999996 149.4534151652147" height="149.4534151652147" width="244.43135999999996"><g><svg viewBox="0 0 244.43135999999996 149.4534151652147" height="149.4534151652147" width="244.43135999999996"><g><svg viewBox="0 0 244.43136 149.45341516521472" height="149.4534151652147" width="244.43135999999996"><g><svg viewBox="0 0 244.43136 149.45341516521472" height="149.45341516521472" width="244.43136"><g id="textblocktransform"><svg viewBox="0 0 244.43136 149.45341516521472" height="149.45341516521472" width="244.43136" id="textblock"><g><svg viewBox="0 0 244.43136 80.60803072" height="80.60803072" width="244.43136"><g transform="matrix(1,0,0,1,0,0)"><svg width="244.43136" viewBox="1.350000023841858 -36.599998474121094 112.48999786376953 37.099998474121094" height="80.60803072" data-palette-color="#136187"><path d="M14.75-36.6L14.75-36.6Q16.3-36.6 17.57-36.27 18.85-35.95 19.5-35.4L19.5-35.4 18.5-31.55Q17.95-31.9 17.25-32.08 16.55-32.25 15.65-32.25L15.65-32.25Q13.6-32.25 12.43-31.3 11.25-30.35 11.25-28.2L11.25-28.2 11.25-24.55 11.4-23.2 11.4 0 6.05 0 6.05-28.6Q6.05-30.5 6.63-32 7.2-33.5 8.35-34.52 9.5-35.55 11.13-36.08 12.75-36.6 14.75-36.6ZM1.35-25L19.35-25 19.35-20.8 1.35-20.8 1.35-25ZM24-36.25L29.35-36.25 29.35-7Q29.35-5.15 30-4.45 30.65-3.75 32.15-3.75L32.15-3.75Q33.05-3.75 33.67-3.88 34.3-4 35.25-4.35L35.25-4.35 34.65-0.35Q33.8 0.05 32.7 0.28 31.6 0.5 30.5 0.5L30.5 0.5Q27.15 0.5 25.57-1.23 24-2.95 24-6.55L24-6.55 24-36.25ZM50.74 0.5L50.74 0.5Q46.99 0.5 44.14-1.05 41.3-2.6 39.72-5.53 38.14-8.45 38.14-12.5L38.14-12.5Q38.14-16.55 39.72-19.48 41.3-22.4 44.09-23.95 46.89-25.5 50.45-25.5L50.45-25.5Q54.09-25.5 56.64-24 59.2-22.5 60.55-19.9 61.89-17.3 61.89-14L61.89-14Q61.89-13.1 61.84-12.3 61.8-11.5 61.7-10.9L61.7-10.9 41.59-10.9 41.59-15 59.34-15 56.7-14.2Q56.7-17.6 55-19.43 53.3-21.25 50.34-21.25L50.34-21.25Q48.2-21.25 46.59-20.25 44.99-19.25 44.14-17.28 43.3-15.3 43.3-12.45L43.3-12.45Q43.3-9.65 44.2-7.7 45.09-5.75 46.74-4.75 48.39-3.75 50.64-3.75L50.64-3.75Q53.14-3.75 54.7-4.7 56.25-5.65 57.14-7.35L57.14-7.35 61.39-5.35Q60.5-3.55 58.97-2.23 57.45-0.9 55.34-0.2 53.25 0.5 50.74 0.5ZM79.64 0.5L79.64 0.5Q75.89 0.5 73.04-1.05 70.19-2.6 68.62-5.53 67.04-8.45 67.04-12.5L67.04-12.5Q67.04-16.55 68.62-19.48 70.19-22.4 72.99-23.95 75.79-25.5 79.34-25.5L79.34-25.5Q82.99-25.5 85.54-24 88.09-22.5 89.44-19.9 90.79-17.3 90.79-14L90.79-14Q90.79-13.1 90.74-12.3 90.69-11.5 90.59-10.9L90.59-10.9 70.49-10.9 70.49-15 88.24-15 85.59-14.2Q85.59-17.6 83.89-19.43 82.19-21.25 79.24-21.25L79.24-21.25Q77.09-21.25 75.49-20.25 73.89-19.25 73.04-17.28 72.19-15.3 72.19-12.45L72.19-12.45Q72.19-9.65 73.09-7.7 73.99-5.75 75.64-4.75 77.29-3.75 79.54-3.75L79.54-3.75Q82.04-3.75 83.59-4.7 85.14-5.65 86.04-7.35L86.04-7.35 90.29-5.35Q89.39-3.55 87.87-2.23 86.34-0.9 84.24-0.2 82.14 0.5 79.64 0.5ZM99.49-30.85L104.84-32.35 104.84-7.5Q104.84-5.65 105.82-4.8 106.79-3.95 108.44-3.95L108.44-3.95Q109.79-3.95 110.79-4.38 111.79-4.8 112.64-5.55L112.64-5.55 113.84-1.65Q112.69-0.65 111.02-0.08 109.34 0.5 107.29 0.5L107.29 0.5Q105.14 0.5 103.34-0.2 101.54-0.9 100.54-2.48 99.54-4.05 99.49-6.6L99.49-6.6 99.49-30.85ZM94.69-25L113.44-25 113.44-20.8 94.69-20.8 94.69-25Z" opacity="1" transform="matrix(1,0,0,1,0,0)" fill="#136187" class="wordmark-text-0" data-fill-palette-color="primary" id="text-0"></path></svg></g></svg></g><g transform="matrix(1,0,0,1,0,99.63765218025472)"><svg viewBox="0 0 244.43136 49.81576298496" height="49.81576298496" width="244.43136"><g transform="matrix(1,0,0,1,0,0)"><svg width="244.43136" viewBox="1.6500000953674316 -34.849998474121094 173.45001220703125 35.349998474121094" height="49.81576298496" data-palette-color="#1a74a1"><path d="M1.65-7.5L1.65-7.5Q1.65-9.95 3.05-11.73 4.45-13.5 6.93-14.48 9.4-15.45 12.65-15.45L12.65-15.45Q14.55-15.45 16.6-15.15 18.65-14.85 20.25-14.25L20.25-14.25 20.25-16.45Q20.25-19.75 18.3-21.7 16.35-23.65 12.9-23.65L12.9-23.65Q10.8-23.65 8.78-22.88 6.75-22.1 4.55-20.6L4.55-20.6 3.25-23Q5.8-24.75 8.25-25.63 10.7-26.5 13.25-26.5L13.25-26.5Q18.05-26.5 20.85-23.75 23.65-21 23.65-16.15L23.65-16.15 23.65-4.1Q23.65-3.4 23.95-3.08 24.25-2.75 24.9-2.7L24.9-2.7 24.9 0Q24.35 0.05 23.95 0.1 23.55 0.15 23.35 0.1L23.35 0.1Q22.1 0.05 21.45-0.7 20.8-1.45 20.75-2.3L20.75-2.3 20.7-4.2Q18.95-1.95 16.15-0.73 13.35 0.5 10.45 0.5L10.45 0.5Q7.95 0.5 5.93-0.58 3.9-1.65 2.78-3.48 1.65-5.3 1.65-7.5ZM19.1-5.5L19.1-5.5Q19.65-6.2 19.95-6.85 20.25-7.5 20.25-8L20.25-8 20.25-11.8Q18.55-12.45 16.73-12.8 14.9-13.15 13.05-13.15L13.05-13.15Q9.4-13.15 7.15-11.7 4.9-10.25 4.9-7.75L4.9-7.75Q4.9-6.3 5.65-5.03 6.4-3.75 7.85-2.93 9.3-2.1 11.25-2.1L11.25-2.1Q13.7-2.1 15.83-3.05 17.95-4 19.1-5.5ZM53.1 0.5L53.1 0.5Q49.9 0.5 47.15-0.55 44.4-1.6 42.4-3.75L42.4-3.75 43.8-6.15Q46-4.1 48.23-3.18 50.45-2.25 52.95-2.25L52.95-2.25Q56-2.25 57.9-3.48 59.8-4.7 59.8-7L59.8-7Q59.8-8.55 58.88-9.38 57.95-10.2 56.23-10.73 54.5-11.25 52.1-11.85L52.1-11.85Q49.4-12.6 47.58-13.43 45.75-14.25 44.83-15.53 43.9-16.8 43.9-18.85L43.9-18.85Q43.9-21.4 45.18-23.08 46.45-24.75 48.68-25.63 50.9-26.5 53.65-26.5L53.65-26.5Q56.65-26.5 58.95-25.55 61.25-24.6 62.7-22.9L62.7-22.9 61.05-20.6Q59.65-22.2 57.73-22.98 55.8-23.75 53.45-23.75L53.45-23.75Q51.85-23.75 50.4-23.33 48.95-22.9 48.03-21.93 47.1-20.95 47.1-19.25L47.1-19.25Q47.1-17.85 47.8-17.07 48.5-16.3 49.9-15.78 51.3-15.25 53.35-14.65L53.35-14.65Q56.3-13.85 58.5-13.03 60.7-12.2 61.9-10.9 63.1-9.6 63.1-7.25L63.1-7.25Q63.1-3.6 60.35-1.55 57.6 0.5 53.1 0.5ZM90.8 0.5L90.8 0.5Q87.6 0.5 84.85-0.55 82.1-1.6 80.1-3.75L80.1-3.75 81.5-6.15Q83.7-4.1 85.93-3.18 88.15-2.25 90.65-2.25L90.65-2.25Q93.7-2.25 95.6-3.48 97.5-4.7 97.5-7L97.5-7Q97.5-8.55 96.58-9.38 95.65-10.2 93.93-10.73 92.2-11.25 89.8-11.85L89.8-11.85Q87.1-12.6 85.28-13.43 83.45-14.25 82.53-15.53 81.6-16.8 81.6-18.85L81.6-18.85Q81.6-21.4 82.88-23.08 84.15-24.75 86.38-25.63 88.6-26.5 91.35-26.5L91.35-26.5Q94.35-26.5 96.65-25.55 98.95-24.6 100.4-22.9L100.4-22.9 98.75-20.6Q97.35-22.2 95.43-22.98 93.5-23.75 91.15-23.75L91.15-23.75Q89.55-23.75 88.1-23.33 86.65-22.9 85.73-21.93 84.8-20.95 84.8-19.25L84.8-19.25Q84.8-17.85 85.5-17.07 86.2-16.3 87.6-15.78 89-15.25 91.05-14.65L91.05-14.65Q94-13.85 96.2-13.03 98.4-12.2 99.6-10.9 100.8-9.6 100.8-7.25L100.8-7.25Q100.8-3.6 98.05-1.55 95.3 0.5 90.8 0.5ZM131.2 0.5L131.2 0.5Q128.4 0.5 126-0.58 123.6-1.65 121.85-3.53 120.1-5.4 119.13-7.85 118.15-10.3 118.15-13.1L118.15-13.1Q118.15-16.75 119.83-19.8 121.5-22.85 124.45-24.68 127.4-26.5 131.15-26.5L131.15-26.5Q135-26.5 137.88-24.65 140.75-22.8 142.4-19.78 144.05-16.75 144.05-13.15L144.05-13.15Q144.05-12.75 144.05-12.38 144.05-12 144-11.8L144-11.8 121.7-11.8Q121.95-9 123.28-6.83 124.6-4.65 126.73-3.38 128.85-2.1 131.35-2.1L131.35-2.1Q133.9-2.1 136.18-3.4 138.45-4.7 139.35-6.8L139.35-6.8 142.3-6Q141.5-4.15 139.85-2.65 138.2-1.15 135.98-0.33 133.75 0.5 131.2 0.5ZM121.6-14.25L121.6-14.25 140.85-14.25Q140.65-17.1 139.33-19.25 138-21.4 135.88-22.63 133.75-23.85 131.2-23.85L131.2-23.85Q128.65-23.85 126.55-22.63 124.45-21.4 123.13-19.23 121.8-17.05 121.6-14.25ZM174.2-4L175.1-1.25Q174.7-1.1 173.85-0.7 173-0.3 171.8 0 170.6 0.3 169.2 0.3L169.2 0.3Q167.75 0.3 166.48-0.25 165.2-0.8 164.45-1.93 163.7-3.05 163.7-4.7L163.7-4.7 163.7-23.35 160.1-23.35 160.1-26.05 163.7-26.05 163.7-34.85 167.1-34.85 167.1-26.05 173.1-26.05 173.1-23.35 167.1-23.35 167.1-5.65Q167.2-4.25 168.13-3.55 169.05-2.85 170.25-2.85L170.25-2.85Q171.65-2.85 172.8-3.33 173.95-3.8 174.2-4L174.2-4Z" opacity="1" transform="matrix(1,0,0,1,0,0)" fill="#1a74a1" class="slogan-text-1" data-fill-palette-color="secondary" id="text-1"></path></svg></g></svg></g></svg></g></svg></g></svg></g></svg></g></svg></g><path d="M144.384 42.873L144.384 0 391.584 0 391.584 247.2 144.384 247.2 144.384 204.327 151.653 204.327 151.653 239.931 384.315 239.931 384.315 7.269 151.653 7.269 151.653 42.873Z" fill="#136187" stroke="transparent" data-fill-palette-color="primary"></path></svg></g><defs></defs></svg><rect width="395.52" height="247.2" fill="none" stroke="none" visibility="hidden"></rect></g></svg></g></svg>